PathFileType	4	(X/Y/Z)	C:\Users\Basilio\Documents\Thesis Gigler\squatting_fais\c3dfiles\054\SLS_front_pre2\markers_experimental.trc
DataRate	CameraRate	NumFrames	NumMarkers	Units	OrigDataRate	OrigDataStartFrame	OrigNumFrames
200.000000	200.000000	4	61	mm	200.000000	1095	1461
Frame#	Time	FHD			LBHD			RBHD			C7			T10			CLAV			LSHO			LUUPA			LMUPA			LDUPA			LLEP			LMEP			LRAD			LUL			LRFIN			RSHO			RUPA1			RMUPA			RDUPA			RLEP			RMEP			RRAD			RUL			RUFIN			LASI			RASI			USACR			LSACR			RSACR			LTHI1			LTHI2			LTHI3			LTHI4			LLFC			LMFC			LTIB1			LTIB2			LTIB3			LTIB4			LLMAL			LMMAL			LHEE			LMT1			LMT2			LMT5			RTHI			RTHI2			RTHI3			RTHI4			RLFC			RMFC			RTIB1			RTIB2			RTIB3			RTIB4			RLMAL			RMMAL			RHEE			RMT1			RMT2			RMT5			
		X1	Y1	Z1	X2	Y2	Z2	X3	Y3	Z3	X4	Y4	Z4	X5	Y5	Z5	X6	Y6	Z6	X7	Y7	Z7	X8	Y8	Z8	X9	Y9	Z9	X10	Y10	Z10	X11	Y11	Z11	X12	Y12	Z12	X13	Y13	Z13	X14	Y14	Z14	X15	Y15	Z15	X16	Y16	Z16	X17	Y17	Z17	X18	Y18	Z18	X19	Y19	Z19	X20	Y20	Z20	X21	Y21	Z21	X22	Y22	Z22	X23	Y23	Z23	X24	Y24	Z24	X25	Y25	Z25	X26	Y26	Z26	X27	Y27	Z27	X28	Y28	Z28	X29	Y29	Z29	X30	Y30	Z30	X31	Y31	Z31	X32	Y32	Z32	X33	Y33	Z33	X34	Y34	Z34	X35	Y35	Z35	X36	Y36	Z36	X37	Y37	Z37	X38	Y38	Z38	X39	Y39	Z39	X40	Y40	Z40	X41	Y41	Z41	X42	Y42	Z42	X43	Y43	Z43	X44	Y44	Z44	X45	Y45	Z45	X46	Y46	Z46	X47	Y47	Z47	X48	Y48	Z48	X49	Y49	Z49	X50	Y50	Z50	X51	Y51	Z51	X52	Y52	Z52	X53	Y53	Z53	X54	Y54	Z54	X55	Y55	Z55	X56	Y56	Z56	X57	Y57	Z57	X58	Y58	Z58	X59	Y59	Z59	X60	Y60	Z60	X61	Y61	Z61	

1096	5.475000000000001	-166.1271514892578	1756.411376953125	-1086.424560546875	-324.1946105957032	1695.18701171875	-1158.797241210938	-342.9007568359376	1694.170166015625	-1019.380615234375	-369.5322265625001	1538.521850585938	-1070.900634765625	-449.4106750488282	1219.147583007813	-1054.885864257813	-233.2991943359376	1465.684936523438	-1082.969482421875	-302.2314147949219	1530.465209960938	-1227.401123046875	-162.0274353027344	1420.481201171875	-1361.76953125	-128.3348541259766	1453.633666992188	-1346.64892578125	-93.56678771972658	1413.042724609375	-1374.500122070313	-34.77648162841798	1417.33935546875	-1373.9404296875	-31.43039703369141	1349.104614257813	-1333.052368164063	219.3228607177735	1441.375854492188	-1289.370849609375	238.1030578613282	1417.257080078125	-1360.968627929688	310.0037231445313	1469.009643554688	-1304.395263671875	-277.5217285156251	1533.656494140625	-934.4627685546877	-130.5535430908203	1420.431762695313	-802.708435058594	-95.79866027832033	1451.281494140625	-813.0484008789065	-62.93458938598634	1404.577514648438	-788.998229980469	-17.8841552734375	1399.510009765625	-789.917663574219	-18.32343482971192	1344.782348632813	-842.8137817382815	240.7999267578126	1475.497680664063	-887.6207275390627	248.2606964111329	1432.376098632813	-821.0700683593752	316.9623413085938	1506.615844726563	-870.8959960937502	-287.0559387207032	1021.824523925781	-1158.895263671875	-279.1364746093751	1065.991088867188	-914.1140747070315	-465.7272949218751	1124.810180664063	-1041.152465820313	-471.8539428710939	1089.644897460938	-1064.349365234375	-470.9784240722657	1097.180297851563	-1007.634765625	-322.7144470214844	771.8867187500002	-1217.047973632813	-267.0068664550782	707.1013793945314	-1213.448852539063	-223.1699981689454	725.1123657226564	-1210.389282226563	-275.8861389160157	650.3310546875001	-1192.692504882813	-227.1244659423829	509.9967041015626	-1166.047973632813	-192.9122619628907	524.2806396484376	-1032.463623046875	-207.0751953125001	351.9811096191407	-1092.331298828125	-263.3508300781251	308.2485351562501	-1142.296752929688	-226.1728210449219	301.8020629882813	-1117.792114257813	-249.7572631835938	233.8282012939454	-1072.859985351563	-334.5503540039063	112.0764465332032	-1097.95556640625	-304.0921630859376	134.570297241211	-1006.651916503906	-406.8222045898439	105.9862594604492	-1037.010498046875	-197.8039703369141	54.28868484497072	-1016.825866699219	-188.6941986083985	54.28243637084962	-1066.277587890625	-242.173324584961	40.80700302124024	-1117.058959960938	-188.0045623779297	815.162536621094	-808.1125488281252	-123.1797256469727	801.2875976562502	-815.0385742187502	-99.81974792480472	822.5505981445315	-826.3588867187502	-92.04744720458986	723.8944091796876	-824.2703247070315	-54.73536682128908	646.7989501953126	-826.9251098632815	-24.8751335144043	665.5547485351564	-959.7500000000002	21.75268745422364	557.1574707031251	-837.476745605469	-30.86826515197755	470.7446289062501	-802.2659301757815	14.07992172241211	472.425506591797	-815.020202636719	36.53541564941407	427.0988159179689	-842.3922119140627	10.80322933197022	245.180404663086	-823.1750488281252	46.0913314819336	263.7344055175782	-910.525817871094	-41.45347976684571	198.4751281738282	-881.197204589844	180.8313598632813	209.7175903320313	-884.9791259765627	182.5726318359375	221.838363647461	-838.5959472656252	135.2772827148438	200.2240600585938	-789.9385375976565	
1097	5.48	-166.7579193115235	1758.000366210938	-1086.273071289063	-324.3830566406251	1696.64111328125	-1158.765258789063	-343.4518127441407	1695.487060546875	-1019.407531738281	-370.0867614746094	1539.78564453125	-1070.822998046875	-449.3008422851564	1220.301635742188	-1055.000732421875	-233.4766235351563	1467.4697265625	-1082.7490234375	-302.7774963378907	1531.8935546875	-1227.522827148438	-162.2311401367188	1421.329833984375	-1361.361572265625	-128.5490264892578	1454.83544921875	-1346.499145507813	-93.8691864013672	1413.9501953125	-1374.155639648438	-35.14449691772462	1418.25634765625	-1373.673583984375	-31.70638084411622	1350.088623046875	-1332.591552734375	219.1322326660157	1442.0625	-1289.139038085938	237.8890533447266	1418.17919921875	-1360.510498046875	309.6371765136719	1469.937133789063	-1304.0283203125	-278.1057434082032	1534.91943359375	-934.301940917969	-131.3377990722657	1421.443969726563	-802.7259521484377	-96.36222839355472	1452.458984375	-812.9090576171877	-63.9512176513672	1405.623168945313	-788.789489746094	-18.7281608581543	1400.26025390625	-789.7427368164065	-19.33451461791993	1345.745361328125	-842.4880371093752	240.1558837890626	1476.373901367188	-887.4253540039065	247.5368194580079	1432.886474609375	-820.8359375000002	316.2012023925782	1507.2265625	-870.331726074219	-286.1863098144532	1023.231506347656	-1158.781860351563	-278.7957763671876	1067.19677734375	-914.1019287109377	-465.2417602539064	1126.068359375	-1041.377319335938	-471.8826599121095	1090.877075195313	-1064.435791015625	-470.7352294921876	1098.109130859375	-1007.591796875	-322.8575134277344	773.1043090820315	-1216.975708007813	-267.3406982421876	708.0657958984376	-1213.292724609375	-223.1400604248047	725.7000732421876	-1210.34814453125	-276.5153808593751	651.1470336914064	-1192.420166015625	-227.5518646240235	510.6255798339845	-1166.045288085938	-194.3574371337891	524.6246337890626	-1032.031616210938	-207.6456909179688	352.5050048828126	-1092.365234375	-264.1817932128907	308.6253356933594	-1142.087646484375	-226.5658569335938	302.2148742675782	-1117.592651367188	-250.1221313476563	234.3496398925782	-1072.903686523438	-334.5578918457032	112.0944595336914	-1097.90673828125	-304.1521911621094	134.5771636962891	-1006.635375976563	-406.8017883300782	105.9935455322266	-1037.004516601563	-197.7496643066407	54.21677017211915	-1016.856689453125	-188.6463012695313	54.31081008911134	-1066.279541015625	-242.1943054199219	40.8209342956543	-1117.0615234375	-188.1984100341797	815.8638916015627	-807.8845214843752	-123.0091323852539	801.945983886719	-814.8012695312502	-99.8444519042969	823.055114746094	-826.0342407226565	-92.27549743652345	724.6734619140626	-823.893493652344	-55.16994857788087	647.3137817382814	-826.5445556640627	-25.42900466918946	665.9894409179689	-959.3677978515627	21.52154922485352	557.4941406250001	-837.1052246093752	-31.64012908935548	471.2193603515626	-801.8615722656252	13.44292736053467	472.7549133300782	-814.5771484375002	35.77286529541016	427.4153442382814	-841.8134765625002	9.939027786254885	245.5745239257813	-822.5591430664065	45.36069869995118	264.0288696289063	-910.0511474609377	-42.36946868896485	198.8719177246094	-880.6684570312502	179.8918609619141	209.8940734863282	-884.3331298828127	181.7394256591797	221.9222869873047	-837.971374511719	134.1904296875	200.4966583251954	-789.3264160156252	
1098	5.485	-167.0330657958985	1759.427734375	-1086.353149414063	-324.8040466308594	1697.927001953125	-1158.864379882813	-344.1225891113282	1696.982299804688	-1019.35009765625	-370.6582946777344	1541.134887695313	-1070.799194335938	-449.1381225585939	1221.412841796875	-1055.097778320313	-234.1004791259766	1468.8740234375	-1082.552978515625	-303.1602478027344	1533.0947265625	-1227.572875976563	-162.5086517333985	1422.235961914063	-1361.163696289063	-128.6982116699219	1455.9716796875	-1346.378540039063	-94.13491058349611	1414.832397460938	-1373.953735351563	-35.5130844116211	1419.199462890625	-1373.341918945313	-31.85710906982423	1351.037475585938	-1332.27880859375	218.8359832763672	1443.054931640625	-1288.783325195313	237.8990173339844	1418.83251953125	-1360.071899414063	308.9006042480469	1470.94677734375	-1303.64501953125	-278.6716308593751	1536.2353515625	-934.1101684570315	-132.2036590576172	1422.474853515625	-802.4275512695315	-96.75640106201175	1453.246337890625	-812.7579345703127	-64.70043182373048	1406.680297851563	-788.4588623046877	-19.70529365539551	1401.060668945313	-789.2906494140627	-20.33640861511231	1346.639526367188	-842.1539306640627	239.3091125488282	1477.003051757813	-886.945739746094	246.9220123291016	1433.462890625	-820.5388793945315	315.6085205078126	1507.818603515625	-869.878356933594	-285.3166198730469	1024.849853515625	-1158.779418945313	-278.4971923828126	1068.482421875	-913.9217529296877	-464.6825561523439	1127.0703125	-1041.47265625	-471.3670043945314	1092.038330078125	-1064.642578125	-470.1948242187501	1099.309814453125	-1007.829528808594	-322.7879943847657	773.905456542969	-1216.70849609375	-267.7008666992188	708.8230590820314	-1213.042724609375	-223.5689544677735	726.1751708984376	-1210.0126953125	-277.2141723632813	651.8858642578126	-1192.031127929688	-228.9804840087891	511.162078857422	-1165.756958007813	-195.5889587402344	525.1528320312501	-1031.788330078125	-208.8778686523438	352.9784545898438	-1092.15185546875	-264.9374694824219	308.9312438964844	-1141.964111328125	-227.2309112548829	302.5138244628907	-1117.4345703125	-250.4341888427735	234.7709960937501	-1073.006591796875	-334.5868835449219	112.16162109375	-1097.901733398438	-304.1976928710938	134.5972290039063	-1006.622741699219	-406.8507385253907	105.9872283935547	-1037.037475585938	-197.8248596191407	54.26179885864259	-1016.807373046875	-188.7334594726563	54.2822608947754	-1066.192016601563	-242.1148529052735	40.84133529663087	-1117.07763671875	-188.2528839111328	816.7532348632815	-807.834167480469	-123.0225296020508	802.4907836914065	-814.5774536132815	-99.89968109130862	823.5366821289065	-825.695251464844	-92.58193969726564	725.1945800781251	-823.4517211914065	-55.6090431213379	647.7145385742189	-826.309753417969	-25.66073036193848	666.3441772460939	-958.972106933594	21.06785011291504	557.8897094726564	-836.6438598632815	-32.42756271362305	471.6423339843751	-801.3516845703127	12.78444194793702	473.1793518066407	-814.116882324219	35.00343704223634	427.8074340820314	-841.2108154296877	8.884202003479006	245.8303833007813	-822.0140380859377	44.58269882202149	264.2809448242188	-909.299255371094	-43.4768409729004	199.2691192626954	-880.2061767578127	179.1399536132813	209.9318847656251	-883.6875000000002	181.0578308105469	222.0970764160157	-837.2911376953127	133.3827819824219	200.5692596435547	-788.6356201171877	
1099	5.49	-167.555892944336	1760.838134765625	-1086.195922851563	-325.2496337890626	1699.487670898438	-1158.79150390625	-344.5197143554688	1698.498291015625	-1019.247924804688	-371.0850219726563	1542.383666992188	-1070.784545898438	-448.6188354492189	1222.30810546875	-1055.273071289063	-234.269760131836	1470.43896484375	-1082.367065429688	-303.5480651855469	1534.28271484375	-1227.524291992188	-162.893295288086	1423.2998046875	-1360.887939453125	-129.0345916748047	1456.88330078125	-1346.208129882813	-94.53244781494142	1415.911743164063	-1373.70947265625	-35.77436065673829	1420.025756835938	-1373.029541015625	-32.17437362670899	1351.952026367188	-1332.172485351563	218.5825958251954	1444.155395507813	-1288.345336914063	238.0768585205079	1419.288452148438	-1359.693237304688	308.6291503906251	1471.646728515625	-1303.192993164063	-279.3475036621094	1537.694213867188	-933.8862304687502	-132.7764282226563	1423.6259765625	-802.3098754882815	-97.69184875488284	1454.39111328125	-812.401550292969	-65.4295120239258	1407.52587890625	-788.361511230469	-20.29879188537598	1402.228515625	-788.874694824219	-20.89202117919922	1347.761962890625	-842.2041015625002	238.5501708984376	1477.699951171875	-886.5217895507815	246.1795196533204	1434.253173828125	-820.168395996094	314.8679504394532	1508.268676757813	-869.3311767578127	-285.3653869628907	1025.73828125	-1158.556762695313	-278.2393493652344	1069.842529296875	-913.8150634765627	-464.2707824707032	1128.30908203125	-1041.662475585938	-471.438201904297	1093.1279296875	-1064.745727539063	-469.538787841797	1100.289672851563	-1007.99951171875	-322.9164123535157	775.044372558594	-1216.6015625	-268.0831909179688	709.5296630859376	-1212.70458984375	-223.9377136230469	726.6918945312501	-1209.787231445313	-277.8907165527344	652.7787475585939	-1191.850952148438	-230.5465698242188	511.5896606445314	-1165.343139648438	-196.8610229492188	525.5446166992189	-1031.50537109375	-209.5880432128907	353.4403381347657	-1091.821655273438	-265.7139892578126	309.2624206542969	-1141.780029296875	-228.3347778320313	302.9373474121094	-1117.377075195313	-251.0815124511719	234.9851684570313	-1072.97509765625	-334.6310729980469	112.195182800293	-1097.898071289063	-304.2602844238282	134.60595703125	-1006.604858398438	-406.8538513183595	105.9949111938477	-1037.028198242188	-197.7494506835938	54.25276565551759	-1016.863037109375	-188.6093292236328	54.3579788208008	-1066.275756835938	-242.1854858398438	40.8107032775879	-1117.060302734375	-188.0382232666016	817.6279296875002	-807.7193603515627	-123.2154388427735	803.0141601562502	-814.2066040039065	-99.91291046142581	824.247985839844	-825.4114990234377	-92.7215042114258	725.7008056640626	-823.152038574219	-56.30288696289064	648.1920776367189	-825.819274902344	-25.82489013671876	666.7272949218751	-958.5963134765627	20.66593170166016	558.1627807617189	-836.1267700195315	-33.1096305847168	471.9315490722657	-800.9051513671877	11.98567199707031	473.594940185547	-813.6301879882815	34.47400665283204	428.0189208984376	-840.7208251953127	7.996315479278566	246.1572570800782	-821.522155761719	43.88448333740235	264.4665527343751	-908.7589111328127	-43.96040725708009	199.4457397460938	-880.0093383789065	178.0536804199219	210.0279388427735	-882.9898681640627	179.6911315917969	222.2224426269532	-836.093200683594	132.0672760009766	200.8191375732422	-788.2587890625002	
